<svg xmlns="http://www.w3.org/2000/svg" xmlns:xlink="http://www.w3.org/1999/xlink" xml:space="preserve" version="1.1" style="shape-rendering:geometricPrecision;text-rendering:geometricPrecision;image-rendering:optimizeQuality;" viewBox="0 0 302 376.25" x="0px" y="0px" fill-rule="evenodd" clip-rule="evenodd"><defs><style type="text/css">
   
    .fil0 {fill:black}
   
  </style></defs><g><path class="fil0" d="M277 133l0 159c0,5 -5,9 -10,9 -77,0 -154,0 -232,0 -5,0 -9,-4 -9,-9l0 -159 -14 12c-7,7 -17,-4 -10,-10l143 -132c3,-4 9,-4 13,0l142 132c7,6 -3,17 -10,10l-13 -12zm-154 154l57 0 0 -80c0,-16 -13,-29 -29,-29 -16,0 -28,13 -28,29l0 80zm139 0l0 -168 -111 -102 -111 102 0 168 68 0 0 -80c0,-24 19,-44 43,-44 24,0 43,20 43,44l0 80 68 0z"/></g><text x="0" y="316" fill="#000000" font-size="5px" font-weight="bold" font-family="'Helvetica Neue', Helvetica, Arial-Unicode, Arial, Sans-serif">Created by Humantech</text><text x="0" y="321" fill="#000000" font-size="5px" font-weight="bold" font-family="'Helvetica Neue', Helvetica, Arial-Unicode, Arial, Sans-serif">from the Noun Project</text></svg>